<svg width="20" height="20" viewBox="0 0 20 20" fill="none" xmlns="http://www.w3.org/2000/svg">
<path d="M18.2 10.2c0-.7-.1-1.4-.2-2H10v3.8h4.6c-.2 1.1-.8 2-1.7 2.6v2.2h2.7c1.6-1.5 2.6-3.7 2.6-6.6z" fill="#4285F4"/>
<path d="M10 18c2.4 0 4.5-.8 6-2.2l-2.7-2.2c-.8.5-1.8.8-3.3.8-2.5 0-4.7-1.7-5.5-4h-2.8v2.3C3.4 15.3 6.5 18 10 18z" fill="#34A853"/>
<path d="M4.5 10.7c-.2-.5-.2-1.1 0-1.4V6.9H1.7c-.9 1.8-.9 3.9 0 5.7l2.8-1.9z" fill="#FBBC04"/>
<path d="M10 4.4c1.4 0 2.7.5 3.7 1.4l2.7-2.7C14.5 1.4 12.4.6 10 .6 6.5.6 3.4 3.3 1.7 6.9l2.8 2.2c.8-2.3 3-4 5.5-4z" fill="#EA4335"/>
</svg>
